<svg width="512" height="512" viewBox="0 0 680 680" xmlns="http://www.w3.org/2000/svg">
  <defs>
    <clipPath id="card-clip">
      <rect x="140" y="140" width="400" height="400" rx="72"/>
    </clipPath>
  </defs>

  <rect x="140" y="140" width="400" height="400" rx="72" fill="#080808"/>

  <text
    x="340" y="438"
    text-anchor="middle"
    font-family="Georgia, 'Times New Roman', serif"
    font-size="280" font-weight="700"
    fill="#ffffff"
    clip-path="url(#card-clip)"
  >T</text>

  <g clip-path="url(#card-clip)">
    <rect x="140" y="460" width="400" height="82" fill="#0f0f0f" opacity="0.88"/>
    <rect x="140" y="459" width="400" height="1.5" fill="#1a1a2e"/>

    <rect x="175" y="482" width="55" height="9" rx="4" fill="#7b79ff" opacity="0.9"/>
    <rect x="244" y="482" width="76" height="9" rx="4" fill="#2a2a3a"/>
    <rect x="334" y="482" width="60" height="9" rx="4" fill="#2a2a3a"/>
    <rect x="408" y="482" width="45" height="9" rx="4" fill="#2a2a3a"/>
    <rect x="230" y="506" width="100" height="6" rx="3" fill="#1e1e2e"/>
    <rect x="342" y="506" width="70" height="6" rx="3" fill="#1e1e2e"/>

    <circle cx="202" cy="482" r="6" fill="#7b79ff"/>
    <line x1="202" y1="476" x2="202" y2="418" stroke="#7b79ff" stroke-width="1.5" stroke-dasharray="3 3" opacity="0.7"/>

    <rect x="152" y="326" width="152" height="86" rx="10" fill="#13131f" stroke="#7b79ff" stroke-width="1.5" stroke-opacity="0.85"/>
    <rect x="167" y="342" width="64" height="6" rx="3" fill="#7b79ff" opacity="0.9"/>
    <rect x="167" y="356" width="118" height="4" rx="2" fill="#3a3a5a"/>
    <rect x="167" y="366" width="100" height="4" rx="2" fill="#3a3a5a"/>
    <rect x="167" y="376" width="110" height="4" rx="2" fill="#3a3a5a"/>
    <rect x="167" y="386" width="80" height="4" rx="2" fill="#3a3a5a"/>

    <polygon points="195,412 202,420 209,412" fill="#13131f" stroke="#7b79ff" stroke-width="1.5" stroke-opacity="0.85" stroke-linejoin="round"/>
    <line x1="195" y1="412" x2="209" y2="412" stroke="#13131f" stroke-width="2.5"/>
  </g>

  <rect x="140" y="140" width="400" height="400" rx="72" fill="none" stroke="#1e1e2e" stroke-width="1.5"/>
</svg>
